<svg width="21" height="24" viewBox="0 0 21 24" fill="none" xmlns="http://www.w3.org/2000/svg">
<path opacity="0.2" d="M12.7305 8.66406V12.8613H4.33594V8.66406H12.7305Z" fill="#D69ABE"/>
<path d="M4.30241 13.5274H12.697C12.8825 13.5274 13.0604 13.4537 13.1916 13.3225C13.3228 13.1913 13.3965 13.0133 13.3965 12.8278V8.63054C13.3965 8.44501 13.3228 8.26708 13.1916 8.13589C13.0604 8.0047 12.8825 7.931 12.697 7.931H4.30241C4.11688 7.931 3.93895 8.0047 3.80776 8.13589C3.67657 8.26708 3.60287 8.44501 3.60287 8.63054V12.8278C3.60287 13.0133 3.67657 13.1913 3.80776 13.3225C3.93895 13.4537 4.11688 13.5274 4.30241 13.5274ZM5.00196 9.33009H11.9974V12.1283H5.00196V9.33009ZM14.7956 5.13281H2.20378C1.83272 5.13281 1.47685 5.28022 1.21447 5.5426C0.952091 5.80498 0.804688 6.16084 0.804688 6.5319V21.9219C0.804688 22.293 0.952091 22.6488 1.21447 22.9112C1.47685 23.1736 1.83272 23.321 2.20378 23.321H14.7956C15.1667 23.321 15.5225 23.1736 15.7849 22.9112C16.0473 22.6488 16.1947 22.293 16.1947 21.9219V6.5319C16.1947 6.16084 16.0473 5.80498 15.7849 5.5426C15.5225 5.28022 15.1667 5.13281 14.7956 5.13281ZM14.7956 21.9219H2.20378V6.5319H14.7956V21.9219ZM6.05128 15.9758C6.05128 16.1833 5.98974 16.3862 5.87444 16.5587C5.75914 16.7313 5.59525 16.8658 5.40352 16.9452C5.21178 17.0246 5.0008 17.0454 4.79725 17.0049C4.5937 16.9644 4.40673 16.8645 4.25998 16.7178C4.11323 16.571 4.01329 16.384 3.9728 16.1805C3.93232 15.9769 3.9531 15.766 4.03252 15.5742C4.11194 15.3825 4.24643 15.2186 4.41899 15.1033C4.59155 14.988 4.79442 14.9265 5.00196 14.9265C5.28026 14.9265 5.54715 15.037 5.74394 15.2338C5.94073 15.4306 6.05128 15.6975 6.05128 15.9758ZM9.54901 15.9758C9.54901 16.1833 9.48746 16.3862 9.37216 16.5587C9.25686 16.7313 9.09298 16.8658 8.90124 16.9452C8.70951 17.0246 8.49852 17.0454 8.29498 17.0049C8.09143 16.9644 7.90446 16.8645 7.75771 16.7178C7.61096 16.571 7.51102 16.384 7.47053 16.1805C7.43004 15.9769 7.45082 15.766 7.53024 15.5742C7.60966 15.3825 7.74416 15.2186 7.91672 15.1033C8.08928 14.988 8.29215 14.9265 8.49969 14.9265C8.77798 14.9265 9.04488 15.037 9.24167 15.2338C9.43845 15.4306 9.54901 15.6975 9.54901 15.9758ZM13.0467 15.9758C13.0467 16.1833 12.9852 16.3862 12.8699 16.5587C12.7546 16.7313 12.5907 16.8658 12.399 16.9452C12.2072 17.0246 11.9963 17.0454 11.7927 17.0049C11.5892 16.9644 11.4022 16.8645 11.2554 16.7178C11.1087 16.571 11.0087 16.384 10.9683 16.1805C10.9278 15.9769 10.9486 15.766 11.028 15.5742C11.1074 15.3825 11.2419 15.2186 11.4144 15.1033C11.587 14.988 11.7899 14.9265 11.9974 14.9265C12.2757 14.9265 12.5426 15.037 12.7394 15.2338C12.9362 15.4306 13.0467 15.6975 13.0467 15.9758ZM6.05128 19.4735C6.05128 19.681 5.98974 19.8839 5.87444 20.0565C5.75914 20.229 5.59525 20.3635 5.40352 20.4429C5.21178 20.5224 5.0008 20.5431 4.79725 20.5027C4.5937 20.4622 4.40673 20.3622 4.25998 20.2155C4.11323 20.0687 4.01329 19.8818 3.9728 19.6782C3.93232 19.4747 3.9531 19.2637 4.03252 19.0719C4.11194 18.8802 4.24643 18.7163 4.41899 18.601C4.59155 18.4857 4.79442 18.4242 5.00196 18.4242C5.28026 18.4242 5.54715 18.5347 5.74394 18.7315C5.94073 18.9283 6.05128 19.1952 6.05128 19.4735ZM9.54901 19.4735C9.54901 19.681 9.48746 19.8839 9.37216 20.0565C9.25686 20.229 9.09298 20.3635 8.90124 20.4429C8.70951 20.5224 8.49852 20.5431 8.29498 20.5027C8.09143 20.4622 7.90446 20.3622 7.75771 20.2155C7.61096 20.0687 7.51102 19.8818 7.47053 19.6782C7.43004 19.4747 7.45082 19.2637 7.53024 19.0719C7.60966 18.8802 7.74416 18.7163 7.91672 18.601C8.08928 18.4857 8.29215 18.4242 8.49969 18.4242C8.77798 18.4242 9.04488 18.5347 9.24167 18.7315C9.43845 18.9283 9.54901 19.1952 9.54901 19.4735ZM13.0467 19.4735C13.0467 19.681 12.9852 19.8839 12.8699 20.0565C12.7546 20.229 12.5907 20.3635 12.399 20.4429C12.2072 20.5224 11.9963 20.5431 11.7927 20.5027C11.5892 20.4622 11.4022 20.3622 11.2554 20.2155C11.1087 20.0687 11.0087 19.8818 10.9683 19.6782C10.9278 19.4747 10.9486 19.2637 11.028 19.0719C11.1074 18.8802 11.2419 18.7163 11.4144 18.601C11.587 18.4857 11.7899 18.4242 11.9974 18.4242C12.2757 18.4242 12.5426 18.5347 12.7394 18.7315C12.9362 18.9283 13.0467 19.1952 13.0467 19.4735Z" fill="#B96C9A"/>
<circle cx="16.5" cy="4.5" r="4" fill="white" stroke="#B96C9A"/>
<path d="M15.7273 3H18L17.7727 3.45455H17.0318C17.1409 3.58636 17.2227 3.74091 17.2705 3.90909H18L17.7727 4.36364H17.3182C17.2899 4.64696 17.1668 4.91244 16.9688 5.11705C16.7708 5.32166 16.5095 5.45339 16.2273 5.49091V5.5H16.0682L17.4318 7.09091H16.8636L15.5 5.5V5.04545H16.0682C16.4682 5.04545 16.8 4.75 16.8545 4.36364H15.5L15.7273 3.90909H16.7864C16.6591 3.64091 16.3864 3.45455 16.0682 3.45455H15.5L15.7273 3Z" fill="#B96C9A"/>
</svg>
