<svg width="21" height="21" viewBox="0 0 21 21" fill="none" xmlns="http://www.w3.org/2000/svg">
<path d="M1.75 10.5C1.75 7.20037 1.75 5.55012 2.7755 4.5255C3.801 3.50087 5.45037 3.5 8.75 3.5H12.25C15.5496 3.5 17.1999 3.5 18.2245 4.5255C19.2491 5.551 19.25 7.20037 19.25 10.5C19.25 13.7996 19.25 15.4499 18.2245 16.4745C17.199 17.4991 15.5496 17.5 12.25 17.5H8.75C5.45037 17.5 3.80012 17.5 2.7755 16.4745C1.75087 15.449 1.75 13.7996 1.75 10.5Z" stroke="#AD8C63" stroke-width="1.5"/>
<path d="M8.75 14H5.25M12.25 14H10.9375M1.75 8.75H19.25" stroke="#AD8C63" stroke-width="1.5" stroke-linecap="round"/>
</svg>
