<svg width="19" height="18" viewBox="0 0 19 18" fill="none" xmlns="http://www.w3.org/2000/svg">
<path d="M3.82209 3.11363V2.2678C3.82209 1.64374 4.0779 1.07478 4.49028 0.661947L4.49274 0.659483C4.90558 0.247772 5.47409 -0.0078125 6.0977 -0.0078125H13.6393C14.2634 -0.0078125 14.8324 0.247996 15.2452 0.66038L15.2477 0.662844C15.6594 1.07568 15.915 1.64419 15.915 2.2678V4.69753C15.999 4.70112 16.0821 4.71366 16.1627 4.73539C16.4436 4.81043 16.6969 4.99321 16.8533 5.2638L17.9469 7.15974C18.1046 7.43123 18.1359 7.74147 18.0606 8.02191C17.9858 8.30214 17.8028 8.55481 17.5318 8.71161L15.915 9.64569V15.4995C15.915 16.1235 15.6591 16.6925 15.2468 17.1053L15.2443 17.1078C14.8315 17.5195 14.263 17.7751 13.6393 17.7751H6.0977C5.47364 17.7751 4.90468 17.5193 4.49185 17.1069L4.48938 17.1044C4.07767 16.6916 3.82209 16.1231 3.82209 15.4995V14.9901L2.82484 15.2573C2.52356 15.338 2.21578 15.2878 1.96378 15.1424C1.71111 14.9968 1.5131 14.7547 1.43246 14.453L0.835272 12.2246C0.754632 11.9233 0.804808 11.6155 0.950184 11.3635C1.09578 11.1109 1.33793 10.9129 1.63966 10.8322L3.82209 10.2474V7.62566H3.74951C3.4377 7.62566 3.153 7.49753 2.94714 7.2919C2.73994 7.08448 2.61182 6.80022 2.61182 6.48796V4.25132C2.61182 3.93952 2.73994 3.65481 2.94558 3.44896C3.153 3.24176 3.4377 3.11363 3.74951 3.11363H3.82209ZM8.15223 1.83257C7.94279 1.83257 7.773 1.66278 7.773 1.45334C7.773 1.2439 7.94279 1.07411 8.15223 1.07411H11.5848C11.7942 1.07411 11.964 1.2439 11.964 1.45334C11.964 1.66278 11.7942 1.83257 11.5848 1.83257H8.15223ZM15.1565 4.93251V2.2678C15.1565 1.85004 14.9862 1.47059 14.7121 1.19664C14.4366 0.920892 14.0571 0.750651 13.6393 0.750651H6.0977C5.67994 0.750651 5.30049 0.920891 5.02654 1.19507C4.75079 1.47059 4.58055 1.85004 4.58055 2.2678V3.11363H5.98615C6.29841 3.11363 6.58266 3.24176 6.78852 3.44739C6.99572 3.65481 7.12385 3.93952 7.12385 4.25132V6.48796C7.12385 6.75923 7.02618 7.01078 6.86423 7.20767C6.79502 7.29212 6.71393 7.36649 6.62366 7.42831L7.31918 9.11459C7.37137 9.24227 7.35166 9.39414 7.25534 9.50547C7.11892 9.66316 6.87991 9.68041 6.72222 9.54399L4.58055 7.683V10.278C4.63185 10.2987 4.68135 10.3224 4.72906 10.3499C4.98174 10.4955 5.17953 10.7375 5.26062 11.0394L5.85758 13.2678C5.93822 13.5691 5.88804 13.8768 5.74266 14.1288C5.59706 14.3815 5.35492 14.5795 5.05319 14.6602L4.58055 14.7867V15.4995C4.58055 15.9175 4.75079 16.2967 5.02497 16.5707C5.30049 16.8464 5.67994 17.0166 6.0977 17.0166H13.6393C14.0571 17.0166 14.4366 16.8464 14.7105 16.5722C14.9862 16.2967 15.1565 15.9172 15.1565 15.4995V10.0838L14.9802 10.1858C14.7994 10.2904 14.5676 10.2288 14.463 10.048L12.2194 6.15958C12.076 5.89504 12.0485 5.59599 12.1211 5.32495C12.1968 5.04384 12.3796 4.79094 12.651 4.63369L12.6609 4.62809C12.9302 4.476 13.2366 4.44576 13.5134 4.51945C13.7959 4.59472 14.0499 4.7775 14.2061 5.04809L14.3935 5.37289L15.1565 4.93251ZM15.6782 5.50348L14.4444 6.2167C14.2636 6.32131 14.0318 6.25971 13.9272 6.07894L13.5511 5.42755C13.4989 5.33705 13.4142 5.2759 13.3208 5.25104C13.231 5.22729 13.1329 5.23513 13.0457 5.28038L13.0144 5.29852C12.9324 5.35161 12.8764 5.43203 12.8526 5.52028C12.8294 5.60787 12.8361 5.70352 12.8777 5.78819L14.9289 9.34128L17.1528 8.05731C17.243 8.00624 17.304 7.92112 17.3291 7.82659C17.3544 7.73206 17.3443 7.62835 17.2926 7.53875L16.1983 5.64326C16.1463 5.55321 16.0614 5.49206 15.9674 5.46697C15.8724 5.44143 15.768 5.45174 15.6782 5.50348ZM11.7949 7.30848C11.6912 7.12771 11.7535 6.89654 11.9342 6.79283C12.115 6.68911 12.3462 6.75139 12.4499 6.93216L14.3024 10.141C14.4061 10.3217 14.3438 10.5529 14.163 10.6566C13.9823 10.7603 13.7511 10.698 13.6474 10.5173L11.7949 7.30848ZM4.06356 10.9666L1.83498 11.5638C1.73396 11.5907 1.6531 11.6565 1.60516 11.7399C1.55655 11.8241 1.53975 11.9276 1.56686 12.0293L2.16404 14.2576C2.19092 14.3587 2.25678 14.4395 2.3401 14.4875C2.42433 14.5361 2.52804 14.5529 2.62951 14.5258C3.3723 14.3266 4.11508 14.1277 4.85786 13.9286C4.95889 13.9017 5.03975 13.8358 5.08769 13.7525C5.1363 13.6683 5.1531 13.5646 5.12599 13.4631L4.52903 11.2347C4.50193 11.1339 4.43607 11.0529 4.35274 11.0049C4.26606 10.955 4.16033 10.9404 4.06356 10.9666ZM4.33169 12.831L3.1082 14.0545C2.96014 14.2016 2.72068 14.201 2.57351 14.0529C2.52513 14.0043 2.49287 13.9458 2.4763 13.8838L2.02359 12.1955C1.96983 11.9937 2.0899 11.7858 2.29172 11.732C2.35802 11.7143 2.425 11.7155 2.48705 11.732L4.17534 12.1845C4.37716 12.2383 4.49722 12.4461 4.44346 12.648C4.42398 12.7212 4.3841 12.7837 4.33169 12.831ZM3.34721 12.7463L2.92452 12.6332L3.03786 13.0556L3.34721 12.7463ZM6.05962 6.86048C6.14833 6.84233 6.22606 6.79417 6.28049 6.72787C6.33335 6.66358 6.36538 6.57958 6.36538 6.48796V4.25132C6.36538 4.14672 6.3226 4.05152 6.2545 3.98297C6.18596 3.91488 6.09076 3.87209 5.98615 3.87209H3.74951C3.6449 3.87209 3.5497 3.91488 3.48116 3.98297C3.41306 4.05152 3.37028 4.14672 3.37028 4.25132V6.48796C3.37028 6.59257 3.41306 6.68777 3.48116 6.75631C3.5497 6.82441 3.6449 6.86719 3.74951 6.86719H4.65425C4.76042 6.86719 4.85652 6.91088 4.92529 6.98121L6.01034 7.92403L5.7841 7.37545C5.70481 7.18236 5.7971 6.9615 5.99018 6.8822L6.05962 6.86048ZM9.47854 14.0303L9.48839 12.4632L8.76666 12.4587C8.81281 12.8198 8.9257 13.1663 9.09639 13.4819C9.20212 13.6772 9.33025 13.8614 9.47854 14.0303ZM9.49332 11.7078L9.5034 10.1179C9.34458 10.2942 9.20794 10.4882 9.09639 10.6942C8.92794 11.0058 8.81572 11.3474 8.76846 11.7034L9.49332 11.7078ZM10.2585 10.1459L10.2486 11.7128L10.9704 11.7172C10.9242 11.3564 10.8113 11.0099 10.6406 10.6942C10.5349 10.4989 10.4068 10.3148 10.2585 10.1459ZM10.2437 12.4681L10.2336 14.0583C10.3925 13.882 10.5291 13.688 10.6406 13.4819C10.8091 13.1703 10.9213 12.8285 10.9686 12.4726L10.2437 12.4681ZM7.44932 11.6951L8.00551 11.6984C8.05703 11.2179 8.20263 10.7558 8.42977 10.3358C8.5019 10.2028 8.58209 10.0738 8.67012 9.94988C8.47345 10.0603 8.2938 10.197 8.13566 10.3551C7.77994 10.7108 7.5331 11.1758 7.44932 11.6951ZM11.734 11.7222L12.2924 11.7255C12.2136 11.1938 11.964 10.7178 11.6014 10.3551C11.4432 10.197 11.2634 10.0603 11.0669 9.94988C11.155 10.074 11.2351 10.2028 11.3073 10.3358C11.538 10.7628 11.6849 11.2332 11.734 11.7222ZM12.2877 12.4809L11.7315 12.4775C11.68 12.958 11.5344 13.4203 11.3073 13.8403C11.2354 13.9734 11.1552 14.1022 11.0671 14.226C11.2636 14.1156 11.4432 13.979 11.6014 13.8208C11.9571 13.4651 12.2039 13.0003 12.2877 12.4809ZM8.00305 12.4538L7.44462 12.4504C7.52346 12.9819 7.773 13.4582 8.13566 13.8208C8.2938 13.979 8.47345 14.1158 8.6699 14.226C8.58186 14.1022 8.50167 13.9734 8.42977 13.8403C8.19905 13.4134 8.0521 12.9427 8.00305 12.4538ZM9.86852 8.87894C10.7544 8.87894 11.557 9.23824 12.1376 9.81884C12.7182 10.3995 13.0775 11.2023 13.0775 12.088C13.0775 12.9739 12.7182 13.7765 12.1376 14.3571C11.557 14.9377 10.7544 15.297 9.86852 15.297C8.98282 15.297 8.18001 14.9377 7.5994 14.3571C7.01879 13.7765 6.6595 12.9739 6.6595 12.088C6.6595 11.2023 7.01879 10.3995 7.5994 9.81884C8.18001 9.23824 8.98282 8.87894 9.86852 8.87894Z" fill="#8D71CD"/>
</svg>
