<svg width="21" height="20" viewBox="0 0 21 20" fill="none" xmlns="http://www.w3.org/2000/svg">
<path d="M19.5871 8.50617C19.2563 8.52684 19.0515 8.83208 19.0988 9.14715H15.2027C15.1505 6.46904 14.4889 3.3075 12.9923 1.43295C13.586 1.61117 14.1581 1.84746 14.6986 2.1527C14.9507 2.29448 15.2707 2.19996 15.4124 1.94791C15.5542 1.69585 15.4646 1.37586 15.2126 1.23408C8.6906 -2.46888 0.446584 2.646 0.867015 10.1339L0.871938 10.197H5.82359C5.87577 12.8751 6.54334 16.0416 8.03992 17.9162C7.21582 17.6641 6.42815 17.2969 5.70348 16.8026C5.13144 16.4245 4.54856 17.2801 5.11569 17.674C11.4015 22.0111 20.2547 17.3274 20.171 9.67117C20.171 9.2094 20.2291 8.49457 19.5881 8.50541L19.5871 8.50617ZM5.82357 9.14616H1.92754C2.02206 7.60232 2.51533 6.14215 3.38178 4.86624C7.29949 6.69365 5.90234 4.59843 5.82357 9.14616ZM4.03851 4.02639C5.11466 2.78186 6.49115 1.89966 8.02907 1.43777C7.3625 2.27762 6.80521 3.44931 6.42221 4.85616C5.52426 4.64053 4.71591 4.36288 4.03851 4.02614V4.02639ZM9.9883 18.168C8.99583 17.7949 8.03487 16.3928 7.44127 14.2768C8.24962 14.135 9.10031 14.0562 9.9883 14.0355V18.168ZM9.9883 12.9852C9.0165 13.0059 8.08213 13.0955 7.19501 13.253C7.01089 12.3344 6.90061 11.3045 6.8691 10.1969H9.9883V12.9852ZM9.9883 9.14641H6.8691C6.90061 8.03283 7.01089 7.00885 7.19501 6.09023C8.08805 6.24284 9.02242 6.33145 9.9883 6.35804V9.14641ZM9.9883 5.30835C9.10611 5.28767 8.25542 5.203 7.44127 5.06712C8.03499 2.94531 8.99596 1.54917 9.9883 1.17587V5.30835ZM11.0379 1.17513C12.0304 1.5483 12.9913 2.94444 13.5849 5.06637C12.7766 5.20323 11.9259 5.28692 11.0379 5.3076V1.17513ZM11.0379 6.35791C12.0097 6.33133 12.9441 6.24272 13.8312 6.0901C14.0153 7.00872 14.1256 8.03863 14.1571 9.14629H11.0379V6.35791ZM11.0379 10.1967H14.1571C14.1256 11.3044 14.0153 12.3343 13.8312 13.2529C12.9441 13.0954 12.0087 13.0058 11.0379 12.9851V10.1967ZM11.0379 18.168V14.0356C11.925 14.0562 12.7757 14.135 13.5849 14.2768C12.9912 16.3927 12.0302 17.7947 11.0379 18.168ZM12.9972 17.9002C13.6638 17.0604 14.2211 15.8887 14.6041 14.4866C15.502 14.6963 16.3055 14.975 16.9878 15.3166C15.9116 16.5562 14.5352 17.4434 12.9972 17.9002ZM17.6446 14.4768C13.7269 12.6445 15.1241 14.7397 15.2029 10.1969H19.0989C19.0044 11.7358 18.5111 13.2009 17.6446 14.4768Z" fill="#A86897"/>
<path d="M18.3518 8.05089C18.6068 8.05089 18.8411 7.93471 18.9957 7.73189C19.9104 6.52575 21.0003 4.87861 21.0003 3.88299C21.0003 2.42282 19.8119 1.23438 18.3517 1.23438C16.8916 1.23438 15.7031 2.42277 15.7031 3.88299C15.7031 4.87841 16.7931 6.52555 17.7087 7.73189C17.8623 7.93472 18.0968 8.05089 18.3518 8.05089ZM18.3518 2.28409C19.233 2.28409 19.9498 3.00089 19.9498 3.88208C19.9498 4.36847 19.3295 5.51157 18.3518 6.83795C17.3741 5.5117 16.7538 4.36857 16.7538 3.88208C16.7538 3.00086 17.4706 2.28409 18.3518 2.28409Z" fill="#A86897"/>
<path d="M2.64861 11.2969C1.18845 11.2969 0 12.4853 0 13.9455C0 14.9419 1.08994 16.5891 2.00561 17.7951C2.30788 18.2175 2.98921 18.2175 3.29151 17.7951C4.20619 16.589 5.29614 14.9419 5.29614 13.9455C5.29614 12.4853 4.10774 11.2969 2.64753 11.2969H2.64861ZM2.64861 16.9011C1.67091 15.5749 1.05062 14.4317 1.05062 13.9452C1.05062 13.064 1.76742 12.3472 2.64861 12.3472C3.5298 12.3472 4.2466 13.064 4.2466 13.9452C4.2466 14.4316 3.62631 15.5747 2.64861 16.9011Z" fill="#A86897"/>
</svg>
