<svg width="20" height="16" viewBox="0 0 20 16" fill="none" xmlns="http://www.w3.org/2000/svg">
<path d="M15.0993 15.3847H0.366274C0.198439 15.3847 0.0625 15.2488 0.0625 15.081V11.4359C0.0625 11.341 0.106547 11.2522 0.181731 11.1945L1.39683 10.2665C1.48872 10.1966 1.61251 10.1845 1.71579 10.2354C1.81983 10.287 1.88514 10.3926 1.88514 10.508V13.5622H6.89737V6.21445C6.89737 6.11953 6.94142 6.03069 7.0166 5.97297L8.2317 5.04502C8.32359 4.97516 8.44738 4.96301 8.55066 5.01388C8.6547 5.06552 8.72001 5.17107 8.72001 5.28649V13.5621H13.5804V1.10844C13.5804 0.940616 13.7163 0.804688 13.8842 0.804688H15.0993C15.2671 0.804688 15.403 0.940616 15.403 1.10844V15.081C15.403 15.2488 15.2671 15.3847 15.0993 15.3847ZM0.669952 14.7772H14.7954V1.41217H14.1879V13.8659C14.1879 14.0337 14.0519 14.1696 13.8841 14.1696H8.41615C8.24831 14.1696 8.11238 14.0337 8.11238 13.8659V5.90068L7.50483 6.36466V13.8658C7.50483 14.0336 7.36889 14.1695 7.20105 14.1695H1.58127C1.41344 14.1695 1.2775 14.0336 1.2775 13.8658V11.1222L0.669952 11.5862V14.7772Z" fill="#1781B9"/>
<path d="M0.366358 11.7393C0.236494 11.7393 0.120305 11.6565 0.0785254 11.5328C0.0367572 11.4097 0.0785254 11.2731 0.181809 11.1941L13.6997 0.866549C13.8334 0.765552 14.0232 0.790612 14.125 0.924262C14.2268 1.05715 14.2017 1.24776 14.0688 1.34951L0.550895 11.677C0.497734 11.7173 0.433188 11.7393 0.366358 11.7393Z" fill="#1781B9"/>
<path d="M6.53238 14.1698C6.47542 14.1698 6.42074 14.1539 6.37289 14.1243L1.42599 11.07C1.35688 11.0283 1.30828 10.9599 1.28929 10.8817C1.27106 10.8035 1.28397 10.7207 1.3265 10.6516C1.36903 10.5833 1.43662 10.5347 1.5156 10.5157C1.59382 10.4975 1.6766 10.5111 1.74496 10.5537L6.69186 13.6079C6.8073 13.6793 6.86197 13.8182 6.82476 13.9488C6.78755 14.0802 6.66756 14.1698 6.53238 14.1698Z" fill="#1781B9"/>
<path d="M7.20346 13.5141C7.14726 13.5141 7.09182 13.4982 7.04398 13.4686L1.98003 10.343C1.83726 10.2549 1.79321 10.0681 1.88131 9.92534C1.9694 9.78257 2.15623 9.73853 2.29899 9.82662L7.36293 12.9522C7.47837 13.0236 7.53305 13.1625 7.49583 13.2931C7.45862 13.4245 7.3394 13.5141 7.20346 13.5141Z" fill="#1781B9"/>
<path d="M9.27256 14.1718C9.17231 14.1718 9.07814 14.1225 9.02194 14.0389C8.96498 13.9562 8.95283 13.8506 8.99004 13.7572L13.5998 1.99753C13.6606 1.8411 13.8368 1.76441 13.9932 1.82591C14.1497 1.88666 14.2264 2.06285 14.1648 2.21926L9.55505 13.9789C9.50949 14.0951 9.39786 14.1718 9.27256 14.1718Z" fill="#1781B9"/>
<path d="M8.42099 13.863C8.32075 13.863 8.22658 13.8136 8.17037 13.7301C8.11342 13.6473 8.10126 13.5418 8.13848 13.4484L12.7695 1.63697C12.7892 1.58534 12.8234 1.53977 12.8674 1.50636L13.7043 0.866956C13.7575 0.826709 13.822 0.804688 13.8889 0.804688H14.3445C14.5124 0.804688 14.6483 0.940616 14.6483 1.10844C14.6483 1.27626 14.5124 1.41219 14.3445 1.41219H13.9914L13.3033 1.93767L8.70347 13.6701C8.65791 13.7863 8.5463 13.863 8.42099 13.863Z" fill="#1781B9"/>
<path d="M18.8978 15.3789H15.1006C14.9328 15.3789 14.7969 15.2429 14.7969 15.0751V9.30375C14.7969 9.13593 14.9328 9 15.1006 9H18.8978C19.0656 9 19.2016 9.13593 19.2016 9.30375V15.0751C19.2016 15.2429 19.0656 15.3789 18.8978 15.3789ZM15.4043 14.7714H18.5939V9.6077H15.4043V14.7714Z" fill="#1781B9"/>
<path d="M17.6788 15.2357C17.5109 15.2357 17.375 15.0998 17.375 14.9319V9.61625C17.375 9.44843 17.5109 9.3125 17.6788 9.3125C17.8466 9.3125 17.9825 9.44843 17.9825 9.61625V14.9319C17.9825 15.0998 17.8466 15.2357 17.6788 15.2357Z" fill="#1781B9"/>
<path d="M16.3116 15.2357C16.1438 15.2357 16.0078 15.0998 16.0078 14.9319V9.61625C16.0078 9.44843 16.1438 9.3125 16.3116 9.3125C16.4794 9.3125 16.6154 9.44843 16.6154 9.61625V14.9319C16.6154 15.0998 16.4794 15.2357 16.3116 15.2357Z" fill="#1781B9"/>
</svg>
