<svg width="19" height="12" viewBox="0 0 19 12" fill="none" xmlns="http://www.w3.org/2000/svg">
<path d="M4.75 2.20312V3.27188H5.9375V2.20312H4.75ZM13.0625 2.20312V3.27188H14.25V2.20312H13.0625ZM4.75 4.34063V5.40938H5.9375V4.34063H4.75ZM13.0625 4.34063V5.40938H14.25V4.34063H13.0625ZM4.75 6.47813V7.54688H5.9375V6.47813H4.75ZM13.0625 6.47813V7.54688H14.25V6.47813H13.0625ZM4.75 8.61562V9.68437H5.9375V8.61562H4.75ZM13.0625 8.61562V9.68437H14.25V8.61562H13.0625Z" fill="#806EAE"/>
<path d="M1.78125 0C1.30883 0 0.855765 0.187667 0.521716 0.521716C0.187667 0.855765 0 1.30883 0 1.78125L0 3.5625C0 3.71997 0.0625556 3.87099 0.173905 3.98234C0.285255 4.09369 0.436278 4.15625 0.59375 4.15625C1.06617 4.15625 1.51923 4.34392 1.85328 4.67797C2.18733 5.01201 2.375 5.46508 2.375 5.9375C2.375 6.40992 2.18733 6.86299 1.85328 7.19703C1.51923 7.53108 1.06617 7.71875 0.59375 7.71875C0.436278 7.71875 0.285255 7.78131 0.173905 7.89265C0.0625556 8.004 0 8.15503 0 8.3125L0 10.0938C0 10.5662 0.187667 11.0192 0.521716 11.3533C0.855765 11.6873 1.30883 11.875 1.78125 11.875H17.2188C17.6912 11.875 18.1442 11.6873 18.4783 11.3533C18.8123 11.0192 19 10.5662 19 10.0938V8.3125C19 8.15503 18.9374 8.004 18.8261 7.89265C18.7147 7.78131 18.5637 7.71875 18.4062 7.71875C17.9338 7.71875 17.4808 7.53108 17.1467 7.19703C16.8127 6.86299 16.625 6.40992 16.625 5.9375C16.625 5.46508 16.8127 5.01201 17.1467 4.67797C17.4808 4.34392 17.9338 4.15625 18.4062 4.15625C18.5637 4.15625 18.7147 4.09369 18.8261 3.98234C18.9374 3.87099 19 3.71997 19 3.5625V1.78125C19 1.30883 18.8123 0.855765 18.4783 0.521716C18.1442 0.187667 17.6912 0 17.2188 0H1.78125ZM1.1875 1.78125C1.1875 1.62378 1.25006 1.47276 1.36141 1.36141C1.47276 1.25006 1.62378 1.1875 1.78125 1.1875H17.2188C17.3762 1.1875 17.5272 1.25006 17.6386 1.36141C17.7499 1.47276 17.8125 1.62378 17.8125 1.78125V3.02813C17.1414 3.1644 16.538 3.5285 16.1047 4.05872C15.6713 4.58895 15.4345 5.2527 15.4345 5.9375C15.4345 6.6223 15.6713 7.28605 16.1047 7.81628C16.538 8.34651 17.1414 8.7106 17.8125 8.84688V10.0938C17.8125 10.2512 17.7499 10.4022 17.6386 10.5136C17.5272 10.6249 17.3762 10.6875 17.2188 10.6875H1.78125C1.62378 10.6875 1.47276 10.6249 1.36141 10.5136C1.25006 10.4022 1.1875 10.2512 1.1875 10.0938V8.84688C1.85861 8.7106 2.46197 8.34651 2.89535 7.81628C3.32873 7.28605 3.56548 6.6223 3.56548 5.9375C3.56548 5.2527 3.32873 4.58895 2.89535 4.05872C2.46197 3.5285 1.85861 3.1644 1.1875 3.02813V1.78125Z" fill="#806EAE"/>
</svg>
