<svg width="46" height="23" viewBox="0 0 46 23" fill="none" xmlns="http://www.w3.org/2000/svg">
<rect x="11.7344" y="21.9141" width="15.5332" height="15.5332" rx="3" transform="rotate(-139.084 11.7344 21.9141)" fill="#61C300"/>
<ellipse cx="10.9578" cy="10.95" rx="5.82496" ry="5.82496" fill="white"/>
<path d="M13.2467 8.36719L10.2811 12.277L8.52777 10.525L7.71875 11.334L10.4151 14.0303L14.1909 9.17621L13.2467 8.36719Z" fill="#61C300"/>
<rect x="35.2578" y="22.8438" width="16.1934" height="16.1934" rx="3" transform="rotate(-139.084 35.2578 22.8438)" fill="#FF143A"/>
<circle cx="34.4475" cy="11.4163" r="6.07253" fill="white"/>
<path d="M36.9496 13.0727L35.243 11.3658L36.949 9.65909L36.0721 8.78125L34.3651 10.4879L32.6585 8.78125L31.7812 9.65909L33.4873 11.3658L31.7812 13.0724L32.6591 13.9496L34.3651 12.243L36.0712 13.9496L36.9496 13.0727Z" fill="#FF143A"/>
</svg>
