<svg width="22" height="21" viewBox="0 0 22 21" fill="none" xmlns="http://www.w3.org/2000/svg">
<path d="M0.875 3.91484C0.875 3.72194 0.95163 3.53693 1.08803 3.40053C1.22443 3.26413 1.40943 3.1875 1.60234 3.1875H2.14347C3.06477 3.1875 3.61754 3.80719 3.93272 4.38324C4.14317 4.76728 4.29542 5.21241 4.4147 5.61584L4.51168 5.61196H16.632C17.4369 5.61196 18.0188 6.38196 17.7977 7.15682L16.0249 13.3722C15.866 13.9296 15.5297 14.4202 15.0671 14.7694C14.6044 15.1187 14.0405 15.3077 13.4608 15.3078H7.69257C7.10827 15.3079 6.54013 15.116 6.07548 14.7617C5.61083 14.4075 5.27539 13.9104 5.12071 13.3469L4.38367 10.6587L3.16175 6.53907L3.16078 6.53131C3.00949 5.98144 2.8679 5.46649 2.65649 5.08245C2.4538 4.70909 2.29088 4.64217 2.14444 4.64217H1.60234C1.40943 4.64217 1.22443 4.56554 1.08803 4.42914C0.95163 4.29274 0.875 4.10774 0.875 3.91484ZM5.7947 10.3057L6.52301 12.9619C6.66848 13.4876 7.14658 13.8532 7.69257 13.8532H13.4608C13.7243 13.8532 13.9806 13.7673 14.191 13.6086C14.4013 13.4499 14.5542 13.227 14.6265 12.9736L16.311 7.06663H4.83656L5.78113 10.2543L5.7947 10.3057ZM9.11815 18.2191C9.11815 18.7335 8.9138 19.2269 8.55006 19.5906C8.18632 19.9543 7.69299 20.1587 7.17858 20.1587C6.66418 20.1587 6.17084 19.9543 5.8071 19.5906C5.44337 19.2269 5.23902 18.7335 5.23902 18.2191C5.23902 17.7047 5.44337 17.2114 5.8071 16.8476C6.17084 16.4839 6.66418 16.2796 7.17858 16.2796C7.69299 16.2796 8.18632 16.4839 8.55006 16.8476C8.9138 17.2114 9.11815 17.7047 9.11815 18.2191ZM7.66347 18.2191C7.66347 18.0905 7.61239 17.9672 7.52145 17.8763C7.43052 17.7853 7.30718 17.7342 7.17858 17.7342C7.04998 17.7342 6.92665 17.7853 6.83571 17.8763C6.74478 17.9672 6.69369 18.0905 6.69369 18.2191C6.69369 18.3477 6.74478 18.4711 6.83571 18.562C6.92665 18.6529 7.04998 18.704 7.17858 18.704C7.30718 18.704 7.43052 18.6529 7.52145 18.562C7.61239 18.4711 7.66347 18.3477 7.66347 18.2191ZM15.9066 18.2191C15.9066 18.7335 15.7023 19.2269 15.3385 19.5906C14.9748 19.9543 14.4815 20.1587 13.9671 20.1587C13.4527 20.1587 12.9593 19.9543 12.5956 19.5906C12.2318 19.2269 12.0275 18.7335 12.0275 18.2191C12.0275 17.7047 12.2318 17.2114 12.5956 16.8476C12.9593 16.4839 13.4527 16.2796 13.9671 16.2796C14.4815 16.2796 14.9748 16.4839 15.3385 16.8476C15.7023 17.2114 15.9066 17.7047 15.9066 18.2191ZM14.4519 18.2191C14.4519 18.0905 14.4009 17.9672 14.3099 17.8763C14.219 17.7853 14.0957 17.7342 13.9671 17.7342C13.8385 17.7342 13.7151 17.7853 13.6242 17.8763C13.5333 17.9672 13.4822 18.0905 13.4822 18.2191C13.4822 18.3477 13.5333 18.4711 13.6242 18.562C13.7151 18.6529 13.8385 18.704 13.9671 18.704C14.0957 18.704 14.219 18.6529 14.3099 18.562C14.4009 18.4711 14.4519 18.3477 14.4519 18.2191Z" fill="#9F9544"/>
<path d="M21.4994 4.195C21.4994 6.23569 19.8451 7.89 17.8044 7.89C15.7637 7.89 14.1094 6.23569 14.1094 4.195C14.1094 2.15431 15.7637 0.5 17.8044 0.5C19.8451 0.5 21.4994 2.15431 21.4994 4.195Z" fill="white" stroke="#9B987D"/>
<path d="M20.2885 2.99949L17.1014 6.1866L15.6406 4.72584L16.0151 4.35135L17.1014 5.43497L19.914 2.625L20.2885 2.99949Z" fill="#9F9544"/>
</svg>
